<svg width="15" height="15" viewBox="0 0 15 15" fill="none" xmlns="http://www.w3.org/2000/svg">
<path d="M2.03523 5.8862C2.03523 3.6571 3.84228 1.85005 6.07138 1.85005C8.30046 1.85005 10.1075 3.6571 10.1075 5.8862C10.1075 8.11528 8.30046 9.92234 6.07138 9.92234C3.84228 9.92234 2.03523 8.11528 2.03523 5.8862ZM6.07138 0.235596C2.95064 0.235596 0.420776 2.76546 0.420776 5.8862C0.420776 9.00694 2.95064 11.5368 6.07138 11.5368C7.34058 11.5368 8.51212 11.1183 9.45544 10.4118L13.5729 14.5293C13.8881 14.8445 14.3992 14.8445 14.7145 14.5293C15.0297 14.2141 15.0297 13.7029 14.7145 13.3877L10.597 9.27026C11.3035 8.32694 11.722 7.1554 11.722 5.8862C11.722 2.76546 9.19213 0.235596 6.07138 0.235596Z" fill="#EDEDED"/>
</svg>
