<svg width="14" height="14" viewBox="0 0 14 14" fill="none" xmlns="http://www.w3.org/2000/svg">
<path d="M6.30006 11.2H7.70006V9.8H6.30006V11.2ZM7.00006 0C6.08081 0 5.17056 0.18106 4.32128 0.532843C3.472 0.884626 2.70032 1.40024 2.05031 2.05025C0.737559 3.36301 6.10352e-05 5.14348 6.10352e-05 7C6.10352e-05 8.85651 0.737559 10.637 2.05031 11.9497C2.70032 12.5998 3.472 13.1154 4.32128 13.4672C5.17056 13.8189 6.08081 14 7.00006 14C8.85658 14 10.6371 13.2625 11.9498 11.9497C13.2626 10.637 14.0001 8.85651 14.0001 7C14.0001 6.08075 13.819 5.17049 13.4672 4.32122C13.1154 3.47194 12.5998 2.70026 11.9498 2.05025C11.2998 1.40024 10.5281 0.884626 9.67885 0.532843C8.82957 0.18106 7.91931 0 7.00006 0ZM7.00006 12.6C3.91306 12.6 1.40006 10.087 1.40006 7C1.40006 3.913 3.91306 1.4 7.00006 1.4C10.0871 1.4 12.6001 3.913 12.6001 7C12.6001 10.087 10.0871 12.6 7.00006 12.6ZM7.00006 2.8C6.25745 2.8 5.54526 3.095 5.02016 3.6201C4.49506 4.1452 4.20006 4.85739 4.20006 5.6H5.60006C5.60006 5.2287 5.74756 4.8726 6.01011 4.61005C6.27266 4.3475 6.62876 4.2 7.00006 4.2C7.37136 4.2 7.72746 4.3475 7.99001 4.61005C8.25256 4.8726 8.40006 5.2287 8.40006 5.6C8.40006 7 6.30006 6.825 6.30006 9.1H7.70006C7.70006 7.525 9.80006 7.35 9.80006 5.6C9.80006 4.85739 9.50506 4.1452 8.97996 3.6201C8.45486 3.095 7.74267 2.8 7.00006 2.8Z" fill="#888888"/>
</svg>
